<?xml version="1.0" encoding="UTF-8"?>
<svg width="43px" height="42px" viewBox="0 0 43 42" version="1.1" xmlns="http://www.w3.org/2000/svg" xmlns:xlink="http://www.w3.org/1999/xlink">
    <title>Group 12</title>
    <defs>
        <polygon id="path-1" points="0 0.00825402563 42.6791 0.00825402563 42.6791 40.2 0 40.2"></polygon>
        <path d="M0.0076,1.5442 L1.3978,6.1098 C1.3978,6.1098 2.9614,7.9734 3.309,8.06 L3.309,8.06 C3.6566,8.147 20.9452,11.8802 20.9452,11.8802 L20.9452,11.8802 L22.7202,5.0288 C22.7202,5.0288 17.9044,0.6756 17.3684,0.5016 L17.3684,0.5016 C16.8322,0.328 11.364,0.1542 11.364,0.1542 L11.364,0.1542" id="path-3"></path>
    </defs>
    <g id="Page-1" stroke="none" stroke-width="1" fill="none" fill-rule="evenodd">
        <g id="GigOcean-Artist-Remaining-steps" transform="translate(-1369.000000, -797.000000)">
            <g id="Group-12" transform="translate(1369.000000, 797.000000)">
                <g id="Group-8" transform="translate(0.000000, 0.191800)">
                    <g id="Group-3">
                        <mask id="mask-2" fill="white">
                            <use xlink:href="#path-1"></use>
                        </mask>
                        <g id="Clip-2"></g>
                        <path d="M25.0359,15.09228 C25.0359,15.09228 25.7809,12.29048 26.1651,10.55788 C26.5299,8.91048 26.8597,7.56968 25.8275,5.96708 C21.7819,-0.31772 9.1155,-2.23852 -0.0001,3.17108 L7.5963,40.20008 L10.5339,40.20008 L7.3931,25.87068 C8.8497,24.26068 13.2221,22.47308 16.1325,22.47308 C19.5243,22.47308 21.5583,22.93188 21.5583,24.66968 C21.5583,26.25388 18.7047,26.33568 18.1985,26.33568 C15.9003,26.33568 16.0797,28.91328 18.1985,29.11028 C27.8139,30.00368 39.2507,23.36588 42.6791,14.37448 C39.8327,16.24868 29.1687,17.93688 25.0359,15.09228" id="Fill-1" fill="#004D75" mask="url(#mask-2)"></path>
                    </g>
                    <path d="M16.53932,25.74912 L16.53932,23.40912 C18.02832,23.40912 20.36852,23.40912 20.36852,24.38772 C20.36852,25.83412 17.13492,25.36612 16.53932,25.74912" id="Fill-4" fill="#004D75"></path>
                    <path d="M22.74714,19.06074 C23.06014,19.34074 23.45354,19.60654 23.84434,19.83094 C24.24034,20.05674 24.65294,20.25914 25.08154,20.42254 C25.93494,20.75994 26.84074,20.96654 27.75774,21.06614 C29.59874,21.26634 31.47494,20.96794 33.24714,20.39174 C35.01454,19.78654 36.69794,18.92414 38.26134,17.88234 C39.82754,16.84234 41.29234,15.64994 42.67914,14.37434 C41.32674,15.68614 39.89214,16.91934 38.34574,18.00654 C36.80194,19.09494 35.12774,20.01174 33.34554,20.67534 C31.55794,21.30934 29.63874,21.67114 27.71674,21.51434 C26.75954,21.43594 25.80554,21.24534 24.89674,20.91374 C24.44034,20.75334 23.99834,20.55154 23.57014,20.32214 C23.13954,20.08674 22.73714,19.83794 22.33834,19.49994 L22.74714,19.06074 Z" id="Fill-6" fill="#FFFFFF"></path>
                </g>
                <g id="Group-11" transform="translate(3.000000, 7.591800)">
                    <mask id="mask-4" fill="white">
                        <use xlink:href="#path-3"></use>
                    </mask>
                    <g id="Clip-10"></g>
                    <path d="M0.52898,4.49814 C0.52898,4.49814 17.36838,-3.73366 22.03598,10.14514" id="Stroke-9" stroke="#FFFFFF" mask="url(#mask-4)"></path>
                </g>
            </g>
        </g>
    </g>
</svg>